<svg width="25" height="24" viewBox="0 0 25 24" fill="none" xmlns="http://www.w3.org/2000/svg">
<path d="M10.4703 5.57649L11.0726 7.24899C11.403 8.16587 11.9317 8.99856 12.6208 9.68772C13.31 10.3769 14.1427 10.9055 15.0596 11.236L16.7321 11.8382C16.7651 11.8503 16.7936 11.8723 16.8137 11.9011C16.8339 11.93 16.8447 11.9643 16.8447 11.9995C16.8447 12.0347 16.8339 12.069 16.8137 12.0978C16.7936 12.1267 16.7651 12.1486 16.7321 12.1607L15.0596 12.763C14.1427 13.0934 13.31 13.6221 12.6208 14.3112C11.9317 15.0004 11.403 15.8331 11.0726 16.75L10.4703 18.4225C10.4582 18.4555 10.4362 18.484 10.4074 18.5042C10.3786 18.5243 10.3442 18.5351 10.3091 18.5351C10.2739 18.5351 10.2396 18.5243 10.2107 18.5042C10.1819 18.484 10.1599 18.4555 10.1478 18.4225L9.54556 16.75C9.2151 15.8331 8.68645 15.0004 7.99729 14.3112C7.30813 13.6221 6.47544 13.0934 5.55856 12.763L3.88606 12.1607C3.85303 12.1486 3.82452 12.1267 3.80438 12.0978C3.78424 12.069 3.77344 12.0347 3.77344 11.9995C3.77344 11.9643 3.78424 11.93 3.80438 11.9011C3.82452 11.8723 3.85303 11.8503 3.88606 11.8382L5.55856 11.236C6.47544 10.9055 7.30813 10.3769 7.99729 9.68772C8.68645 8.99856 9.2151 8.16587 9.54556 7.24899L10.1478 5.57649C10.1596 5.54313 10.1814 5.51424 10.2103 5.49381C10.2392 5.47337 10.2737 5.4624 10.3091 5.4624C10.3444 5.4624 10.3789 5.47337 10.4078 5.49381C10.4367 5.51424 10.4585 5.54313 10.4703 5.57649ZM17.9988 1.55724L18.3041 2.40399C18.4715 2.86821 18.7393 3.28982 19.0883 3.63878C19.4372 3.98775 19.8588 4.25551 20.3231 4.42299L21.1698 4.72824C21.1866 4.73434 21.2011 4.74546 21.2113 4.76009C21.2215 4.77471 21.227 4.79213 21.227 4.80999C21.227 4.82784 21.2215 4.84526 21.2113 4.85988C21.2011 4.87451 21.1866 4.88563 21.1698 4.89174L20.3231 5.19699C19.8588 5.36447 19.4372 5.63222 19.0883 5.98119C18.7393 6.33015 18.4715 6.75176 18.3041 7.21599L17.9988 8.06274C17.9927 8.07951 17.9816 8.094 17.967 8.10424C17.9523 8.11448 17.9349 8.11997 17.9171 8.11997C17.8992 8.11997 17.8818 8.11448 17.8672 8.10424C17.8525 8.094 17.8414 8.07951 17.8353 8.06274L17.5301 7.21599C17.3626 6.75176 17.0948 6.33015 16.7459 5.98119C16.3969 5.63222 15.9753 5.36447 15.5111 5.19699L14.6643 4.89174C14.6475 4.88563 14.633 4.87451 14.6228 4.85988C14.6126 4.84526 14.6071 4.82784 14.6071 4.80999C14.6071 4.79213 14.6126 4.77471 14.6228 4.76009C14.633 4.74546 14.6475 4.73434 14.6643 4.72824L15.5111 4.42299C15.9753 4.25551 16.3969 3.98775 16.7459 3.63878C17.0948 3.28982 17.3626 2.86821 17.5301 2.40399L17.8353 1.55724C17.8414 1.54046 17.8525 1.52597 17.8672 1.51573C17.8818 1.50549 17.8992 1.5 17.9171 1.5C17.9349 1.5 17.9523 1.50549 17.967 1.51573C17.9816 1.52597 17.9927 1.54046 17.9988 1.55724ZM17.9988 15.937L18.3041 16.7837C18.4715 17.248 18.7393 17.6696 19.0883 18.0185C19.4372 18.3675 19.8588 18.6353 20.3231 18.8027L21.1698 19.108C21.1866 19.1141 21.2011 19.1252 21.2113 19.1398C21.2215 19.1545 21.227 19.1719 21.227 19.1897C21.227 19.2076 21.2215 19.225 21.2113 19.2396C21.2011 19.2543 21.1866 19.2654 21.1698 19.2715L20.3231 19.5767C19.8588 19.7442 19.4372 20.012 19.0883 20.3609C18.7393 20.7099 18.4715 21.1315 18.3041 21.5957L17.9988 22.4425C17.9927 22.4593 17.9816 22.4738 17.967 22.484C17.9523 22.4942 17.9349 22.4997 17.9171 22.4997C17.8992 22.4997 17.8818 22.4942 17.8672 22.484C17.8525 22.4738 17.8414 22.4593 17.8353 22.4425L17.5301 21.5957C17.3626 21.1315 17.0948 20.7099 16.7459 20.3609C16.3969 20.012 15.9753 19.7442 15.5111 19.5767L14.6643 19.2715C14.6475 19.2654 14.633 19.2543 14.6228 19.2396C14.6126 19.225 14.6071 19.2076 14.6071 19.1897C14.6071 19.1719 14.6126 19.1545 14.6228 19.1398C14.633 19.1252 14.6475 19.1141 14.6643 19.108L15.5111 18.8027C15.9753 18.6353 16.3969 18.3675 16.7459 18.0185C17.0948 17.6696 17.3626 17.248 17.5301 16.7837L17.8353 15.937C17.8631 15.8605 17.9718 15.8605 17.9988 15.937Z" fill="white"/>
</svg>
